<?xml version="1.0" encoding="UTF-8"?><svg xmlns="http://www.w3.org/2000/svg" id="Layer_2" viewBox="0 0 189.79 74.7"><defs><style>.cls-1{fill:#0f5b5b;}.cls-1,.cls-2{fill-rule:evenodd;stroke-width:0px;}.cls-2{fill:#fff;}</style></defs><g id="Layer_1-2"><path class="cls-1" d="M189.3,34.71c-2.26,1.74-4.64,3.16-7.15,4.25-.97.45-2.03.77-3.19.97l-.77.1c-.77,0-1.39-.29-1.84-.87-.13-.32-.19-.64-.19-.97,0-.97.71-2.29,2.13-3.96l.87-1.16c-.52.06-1.03.26-1.55.58-1.87.9-4.22,2.42-7.06,4.54-2.06,1.55-3.26,2.32-3.58,2.32-.65,0-.97-.35-.97-1.06.08-.32.24-.64.47-.96-1.93,1.19-3.95,2.15-6.07,2.9-1.16.39-2.35.58-3.58.58-.52,0-1.32-.06-2.42-.19-1.1-.13-1.71-1.06-1.84-2.8.03-.43.11-.85.23-1.26-2.29,1.55-4.71,2.78-7.28,3.68-1.16.39-2.35.58-3.58.58-.52,0-1.32-.06-2.42-.19-1.1-.13-1.71-1.06-1.84-2.8.08-1.01.38-1.96.92-2.85-.27.03-.54.05-.82.05-1.68,0-2.68-.71-3-2.13l-.1-1.55h-.1c-.13,0-.39.1-.77.29v.1c-1.23.65-2.32,1.45-3.29,2.42-1.16.84-2.29,1.74-3.38,2.71l-3.09,2.8-.19.1-2.42,2.71c-.32.32-.65.48-.97.48h-.39c-.19,0-.34-.1-.44-.29-.1-.19-.14-.35-.14-.48,0-.26.13-.52.39-.77,1.6-2.34,3.56-4.79,5.87-7.34-4.15,1.14-8.3,2.52-12.44,4.14l-1.93,2.03c-1.35,1.35-2.8,2.87-4.35,4.54-4.51,5.03-9.47,9.54-14.89,13.54l-.19.19c-1.55,1.16-3.19,2.03-4.93,2.61l-1.16.1c-1.68,0-2.51-.74-2.51-2.22,0-.45.13-.97.39-1.55.58-1.35,2.03-3.32,4.35-5.9,5.16-4.83,10.86-8.64,17.11-11.41l3.77-1.64,1.74-1.93c4.25-4.45,7.44-7.73,9.57-9.86l1.06-1.16c-3.8,2.45-7.67,4.8-11.6,7.06-4.83,2.9-9.83,5.22-14.99,6.96-2.06.65-4.13.97-6.19.97-.19,0-.9-.02-2.13-.05-1.23-.03-2.1-1.14-2.61-3.34l-.1-1.16c0-3.16,1.69-6.9,5.08-11.21,3.38-4.32,7.2-8.15,11.46-11.51,7.15-6.06,13.95-10.25,20.4-12.57,2.19-.9,4.35-1.39,6.48-1.45,2.84,0,4.77,1.03,5.8,3.09.19.58.29,1.19.29,1.84,0,1.29-.42,2.61-1.26,3.96-2.97,4.19-6.7,7.61-11.22,10.25-4.38,2.84-8.99,4.93-13.83,6.28h-.29c-.52,0-.77-.26-.77-.77,0-.77.35-1.29,1.06-1.55,1.1-.26,2.16-.58,3.19-.97,4.25-1.61,8.31-3.71,12.18-6.28,5.09-3.29,8.15-6.51,9.18-9.67l.1-.97c0-2.06-1.32-3.09-3.96-3.09-1.68,0-3.42.39-5.22,1.16-7.8,3.03-15.73,8.28-23.78,15.76-4.96,4.38-8.7,8.93-11.21,13.63-.84,1.61-1.26,2.93-1.26,3.96,0,.9.34,1.6,1.02,2.08.68.48,1.4.73,2.18.73,1.1,0,2.35-.16,3.77-.48,5.41-1.35,12.31-4.61,20.69-9.76,4.38-2.58,8.7-5.35,12.96-8.31l.77-.68c.58-.77,1.16-1.16,1.74-1.16.71,0,1.06.42,1.06,1.26,0,.26-.13.55-.39.87-2.45,3.03-5.87,6.74-10.25,11.12-1.42,1.42-2.77,2.84-4.06,4.25,4-1.48,7.99-2.74,11.99-3.77h.04c.55-.58,1.12-1.15,1.7-1.74l.39-.48c.97-1.1,2.03-1.97,3.19-2.61.19-.13.39-.19.58-.19.45.13.68.39.68.77l-.1.39c-.65,1.1-1.45,2.13-2.42,3.09l-1.26,1.35,2.22-1.74c1.29-.97,2.38-1.45,3.29-1.45.52.13.87.37,1.06.73.19.36.35.76.48,1.21.19.71.61,1.26,1.26,1.64l.58.1c.39,0,.76-.09,1.12-.27.39-.35.79-.68,1.2-.98,0,0,0,0,0,0,.11-.11.21-.18.32-.23.8-.56,1.63-1.04,2.49-1.41,1.1-.58,2.22-.9,3.38-.97.45,0,.84.1,1.16.29.58.32.87.77.87,1.35v.58c0,.39-.32.9-.97,1.55-.9.9-2,1.61-3.29,2.13-1.29.52-2.61.77-3.96.77-.39.52-.65,1.03-.77,1.55,0,.97.61,1.45,1.84,1.45,1.93,0,3.87-.48,5.8-1.45,2.12-1,4.11-2.27,5.99-3.8.11-.12.22-.24.34-.35,1.39-1.35,2.88-2.38,4.5-3.09,1.1-.58,2.22-.9,3.38-.97.45,0,.84.1,1.16.29.58.32.87.77.87,1.35v.58c0,.39-.32.9-.97,1.55-.9.9-2,1.61-3.29,2.13-1.29.52-2.61.77-3.96.77-.39.52-.65,1.03-.77,1.55,0,.97.61,1.45,1.84,1.45,1.93,0,3.87-.48,5.8-1.45,2.1-.99,4.08-2.25,5.94-3.77l1.02-1.26,1.93-2.22c1.1-1.48,2.03-2.22,2.8-2.22.58,0,.87.26.87.77s-.55,1.39-1.64,2.61l-2.9,3.38c3.09-2.06,5.12-3.35,6.09-3.87l.19-.1c1.22-.71,2.19-1.06,2.9-1.06.9,0,1.35.48,1.35,1.45s-.81,2.32-2.42,4.06c-.07,0-.14.06-.24.19-.1.13-.24.31-.44.53-.19.23-.29.47-.29.73,0,.13.1.23.29.29.58,0,1.13-.06,1.64-.19,2.38-.58,5.03-2,7.93-4.25.26-.19.48-.29.68-.29.39,0,.61.19.68.58,0,.26-.16.52-.48.77ZM104.42,43.22c-5.93,2.71-11.18,6.41-15.76,11.12-1.1,1.16-2.03,2.42-2.8,3.77-.26.58-.39,1-.39,1.26,0,.13.03.26.1.39.06.13.23.19.48.19.19,0,.42-.06.68-.19,1.29-.58,2.48-1.35,3.58-2.32l.48-.29c4.77-3.87,9.96-8.8,15.57-14.79l-1.93.87ZM146.47,34.13c.77-.39,1.22-.81,1.35-1.26l-.58.19c-1.35.45-2.68,1.19-3.96,2.22,1.1-.19,2.16-.58,3.19-1.16ZM161.36,34.13c.77-.39,1.22-.81,1.35-1.26l-.58.19c-1.35.45-2.68,1.19-3.96,2.22,1.1-.19,2.16-.58,3.19-1.16ZM74.64,47.28c-.13.19-.29.34-.48.44-.19.1-.39.18-.58.24h-.39c-.13,0-.29-.03-.48-.1-.19-.06-.37-.19-.53-.39-.16-.19-.24-.42-.24-.68s.06-.55.19-.87c.13-.32.48-.61,1.06-.87.26-.19.55-.29.87-.29.26,0,.5.1.73.29.23.19.37.42.44.68v.48c0,.19-.06.37-.19.53-.13.16-.26.34-.39.53ZM69.42,36.16c-1.68,0-2.68-.71-3-2.13l-.1-1.55h-.1c-.13,0-.39.1-.77.29v.1c-1.23.65-2.32,1.45-3.29,2.42-1.16.84-2.29,1.74-3.38,2.71l-3.09,2.8-.19.1-2.42,2.71c-.32.32-.65.48-.97.48h-.39c-.19,0-.34-.1-.44-.29-.1-.19-.14-.35-.14-.48,0-.26.13-.52.39-.77,2.38-3.48,5.54-7.19,9.47-11.12l.39-.48c.97-1.1,2.03-1.97,3.19-2.61.19-.13.39-.19.58-.19.45.13.68.39.68.77l-.1.39c-.65,1.1-1.45,2.13-2.42,3.09l-1.26,1.35,2.22-1.74c1.29-.97,2.38-1.45,3.29-1.45.52.13.87.37,1.06.73.19.36.35.76.48,1.21.19.71.61,1.26,1.26,1.64l.58.1c.84,0,1.61-.42,2.32-1.26.19-.19.39-.29.58-.29h.29c.19,0,.29.16.29.48,0,.13-.06.29-.19.48-1.23,1.68-2.84,2.51-4.83,2.51ZM49.5,38.19c-5.8,5.35-12.22,9.57-19.24,12.67-6.38,2.97-12.7,4.45-18.95,4.45-5.16,0-8.57-1.03-10.25-3.09-.71-.84-1.06-1.84-1.06-3,0-.32.08-.93.24-1.84.16-.9.79-2.06,1.89-3.48,2.38-2.77,5.25-4.83,8.6-6.19,3.22-1.55,6.51-2.71,9.86-3.48,1.68-1.74,3.96-4,6.86-6.77,1.1-1.16,2.96-3,5.61-5.51,1.42-1.35,2.58-2.03,3.48-2.03.71.07,1.06.45,1.06,1.16,0,.84-.52,1.42-1.55,1.74h-.1c0,.06-.06.14-.19.24-.13.1-.36.28-.68.53l-1.64,1.55c-3.93,3.55-6.9,6.32-8.89,8.31,5.41-.84,10.76-1.32,16.05-1.45.39,0,.58.19.58.58,0,.19-.08.4-.24.63-.16.23-.4.34-.73.34l-2.42.19c-4.25,0-9.31.52-15.18,1.55l-1.55,1.64-4.35,4.35-.68.77c-1.23,1.48-2.19,2.22-2.9,2.22-.52,0-.77-.23-.77-.68,0-.52.77-1.55,2.32-3.09l3.96-4.25c-.58.13-1.13.29-1.64.48-3.09.97-6.09,2.32-8.99,4.06-1.42.84-2.71,1.87-3.87,3.09-1.35,1.42-2.03,2.87-2.03,4.35,0,1.16.42,2.06,1.26,2.71,1.55,1.16,4.12,1.74,7.73,1.74,1.42,0,2.87-.1,4.35-.29,6.64-1.1,13.08-3.48,19.34-7.15,6.12-3.35,11.54-7.67,16.24-12.96,4.7-5.28,7.06-10.86,7.06-16.73v-.48c-.65-4.77-2.97-8.38-6.96-10.83-3.03-1.68-6.41-2.51-10.15-2.51-2.06,0-4.22.26-6.48.77-6.32,1.42-12.28,4.19-17.89,8.31-2.51,1.93-4.77,4.13-6.77,6.57-2.45,3.09-3.67,5.87-3.67,8.31v.39c0,.58-.29.87-.87.87-.06,0-.19-.02-.39-.05-.19-.03-.29-.4-.29-1.11,0-1.35.32-2.71.97-4.06,2.45-5.48,7.09-10.31,13.92-14.5C27.39,2.42,35.45,0,43.7,0c4.83,0,8.99,1.32,12.47,3.96,3.61,2.97,5.41,6.86,5.41,11.7,0,1.03-.1,2.13-.29,3.29-1.23,6.77-5.16,13.18-11.8,19.24Z"/><path class="cls-2" d="M155.52,72.22v2.38h-1.35v-2.38l-2.31-4.06h1.41l1.58,2.91,1.58-2.91h1.4l-2.31,4.06ZM139.75,68.16h4.62v1.05h-3.27v1.65h2.9v1.04h-2.9v1.66h3.27v1.04h-4.62v-6.44ZM130.37,74.6l-1.85-2.97-.86.93v2.04h-1.35v-6.44h1.35v2.73l2.48-2.73h1.55l-2.33,2.61,2.45,3.83h-1.44ZM103.45,68.16h1.35v5.4h3.17v1.04h-4.52v-6.44ZM93.5,73.05h-2.37l-.6,1.55h-1.41l2.46-6.44h1.48l2.45,6.44h-1.4l-.61-1.55ZM92.31,69.42l-.98,2.59h1.97l-.99-2.59ZM80.86,74.6h-1.35v-5.4h-1.98v-1.04h5.3v1.04h-1.97v5.4ZM68.44,68.16h1.35v6.44h-1.35v-6.44ZM58.1,74.7c-1.07,0-1.88-.28-2.45-.85-.57-.56-.85-1.35-.85-2.37,0-1.08.29-1.92.86-2.52.58-.6,1.42-.91,2.51-.91.73,0,1.38.09,1.94.27v1.16c-.52-.19-1.13-.28-1.84-.28-.75,0-1.29.18-1.62.56-.33.37-.49.94-.49,1.72,0,1.38.65,2.07,1.95,2.07.45,0,.86-.07,1.24-.2v-1.5h-1.5v-.86h2.64v3.15c-.25.16-.58.29-.98.39-.4.1-.87.16-1.42.16ZM45.51,68.16h1.35v6.44h-1.35v-6.44ZM34.65,74.6h-2.7v-6.44h2.7c.99,0,1.72.25,2.2.76.48.51.72,1.34.72,2.48s-.24,1.9-.72,2.42c-.48.52-1.21.77-2.2.77ZM36.03,70.09c-.12-.31-.3-.52-.55-.64-.25-.12-.59-.18-1.02-.18h-1.16v4.28h1.16c.41,0,.73-.06.98-.18.25-.12.43-.34.56-.65.13-.31.2-.75.2-1.32s-.06-1.01-.17-1.32Z"/></g></svg>